<svg xmlns="http://www.w3.org/2000/svg" xmlns:xlink="http://www.w3.org/1999/xlink" width="500" zoomAndPan="magnify" viewBox="0 0 375 187.499995" height="250" preserveAspectRatio="xMidYMid meet" version="1.0"><defs><g/><clipPath id="5017e53a90"><path d="M 12.925781 45 L 68 45 L 68 154 L 12.925781 154 Z M 12.925781 45 " clip-rule="nonzero"/></clipPath><clipPath id="c150c5aa6e"><path d="M 67 45 L 120.148438 45 L 120.148438 95 L 67 95 Z M 67 45 " clip-rule="nonzero"/></clipPath><clipPath id="ef13d65453"><path d="M 36 24.773438 L 97 24.773438 L 97 46 L 36 46 Z M 36 24.773438 " clip-rule="nonzero"/></clipPath></defs><path fill="#9ea4ad" d="M 68.140625 76.203125 L 76.632812 76.203125 L 76.632812 67.710938 L 68.140625 67.710938 L 68.140625 76.203125 " fill-opacity="1" fill-rule="nonzero"/><path fill="#9ea4ad" d="M 56.441406 76.203125 L 64.933594 76.203125 L 64.933594 67.710938 L 56.441406 67.710938 L 56.441406 76.203125 " fill-opacity="1" fill-rule="nonzero"/><path fill="#9ea4ad" d="M 68.140625 88.28125 L 76.632812 88.28125 L 76.632812 79.789062 L 68.140625 79.789062 L 68.140625 88.28125 " fill-opacity="1" fill-rule="nonzero"/><path fill="#9ea4ad" d="M 56.441406 88.28125 L 64.933594 88.28125 L 64.933594 79.789062 L 56.441406 79.789062 L 56.441406 88.28125 " fill-opacity="1" fill-rule="nonzero"/><g clip-path="url(#5017e53a90)"><path fill="#ff914d" d="M 18.605469 61.375 L 45.496094 45.847656 L 45.496094 48.910156 L 65.753906 48.910156 L 25.542969 72.125 L 25.542969 119.460938 L 64.199219 141.78125 C 67.253906 143.542969 68.304688 147.453125 66.539062 150.507812 C 64.773438 153.566406 60.867188 154.613281 57.808594 152.847656 L 18.605469 130.214844 C 15.003906 128.132812 12.761719 124.253906 12.761719 120.09375 L 12.761719 71.492188 C 12.761719 67.332031 15.003906 63.453125 18.605469 61.375 " fill-opacity="1" fill-rule="nonzero"/></g><g clip-path="url(#c150c5aa6e)"><path fill="#ff914d" d="M 87.582031 48.910156 L 87.582031 45.847656 L 114.46875 61.375 C 118.074219 63.453125 120.3125 67.332031 120.3125 71.492188 L 120.3125 88.601562 C 120.3125 92.128906 117.453125 94.992188 113.921875 94.992188 C 110.394531 94.992188 107.535156 92.128906 107.535156 88.601562 L 107.535156 72.125 L 67.324219 48.910156 L 87.582031 48.910156 " fill-opacity="1" fill-rule="nonzero"/></g><g clip-path="url(#ef13d65453)"><path fill="#9ea4ad" d="M 66.539062 24.777344 L 96.765625 34.90625 L 66.539062 45.035156 L 36.3125 34.90625 L 66.539062 24.777344 " fill-opacity="1" fill-rule="nonzero"/></g><path fill="#9ea4ad" d="M 48.050781 46.355469 L 85.023438 46.355469 L 85.023438 38.773438 L 48.050781 38.773438 L 48.050781 46.355469 " fill-opacity="1" fill-rule="nonzero"/><path fill="#9ea4ad" d="M 41.695312 44.378906 C 41.851562 43.914062 41.816406 43.390625 41.53125 42.992188 C 41.445312 42.871094 41.394531 42.726562 41.394531 42.566406 C 41.394531 42.34375 41.496094 42.144531 41.648438 42.007812 L 41.648438 36.324219 L 42.621094 36.324219 L 42.621094 42.007812 C 42.777344 42.144531 42.875 42.34375 42.875 42.566406 C 42.875 42.726562 42.824219 42.871094 42.738281 42.992188 C 42.453125 43.390625 42.417969 43.914062 42.574219 44.378906 L 43.246094 46.355469 L 41.023438 46.355469 L 41.695312 44.378906 " fill-opacity="1" fill-rule="nonzero"/><g fill="#f7f8fa" fill-opacity="1"><g transform="translate(75.058876, 137.546296)"><g><path d="M 14.890625 0.636719 C 22.425781 0.636719 27.058594 -2.949219 27.058594 -8.945312 C 27.058594 -13.984375 23.742188 -16.980469 15.84375 -18.839844 C 10.988281 -19.976562 9.308594 -21.203125 9.308594 -23.152344 C 9.308594 -25.242188 11.167969 -26.511719 14.210938 -26.511719 C 17.523438 -26.511719 19.523438 -24.789062 19.523438 -21.929688 L 26.46875 -21.929688 C 26.46875 -28.328125 21.65625 -32.414062 14.121094 -32.414062 C 6.808594 -32.414062 2.269531 -28.828125 2.269531 -23.015625 C 2.269531 -17.84375 5.765625 -14.753906 13.210938 -13.164062 C 17.707031 -12.210938 19.75 -10.894531 19.75 -8.671875 C 19.75 -6.539062 17.84375 -5.3125 14.84375 -5.3125 C 11.351562 -5.3125 9.078125 -7.082031 9.078125 -10.125 L 1.996094 -10.125 C 1.996094 -3.542969 6.902344 0.636719 14.890625 0.636719 Z M 14.890625 0.636719 "/></g></g></g><g fill="#f7f8fa" fill-opacity="1"><g transform="translate(104.160012, 137.546296)"><g><path d="M 3.8125 0 L 25.195312 0 L 25.195312 -6.128906 L 10.988281 -6.128906 L 10.988281 -13.074219 L 23.472656 -13.074219 L 23.472656 -19.113281 L 10.988281 -19.113281 L 10.988281 -25.695312 L 24.699219 -25.695312 L 24.699219 -31.78125 L 3.8125 -31.78125 Z M 3.8125 0 "/></g></g></g><g fill="#f7f8fa" fill-opacity="1"><g transform="translate(131.672159, 137.546296)"><g><path d="M 3.8125 0 L 11.03125 0 L 11.03125 -12.847656 L 14.84375 -12.847656 C 15.4375 -12.847656 15.933594 -12.847656 16.480469 -12.894531 L 23.289062 0 L 31.6875 0 L 23.109375 -15.570312 C 24.378906 -16.796875 25.332031 -18.386719 26.148438 -20.476562 L 30.554688 -31.78125 L 22.746094 -31.78125 L 19.75 -23.515625 C 18.660156 -20.519531 17.34375 -19.566406 13.757812 -19.566406 L 11.03125 -19.566406 L 11.03125 -31.78125 L 3.8125 -31.78125 Z M 3.8125 0 "/></g></g></g><g fill="#f7f8fa" fill-opacity="1"><g transform="translate(164.677657, 137.546296)"><g><path d="M 18.886719 0.636719 C 28.828125 0.636719 35.867188 -6.175781 35.867188 -15.890625 C 35.867188 -25.605469 28.828125 -32.414062 18.886719 -32.414062 C 8.945312 -32.414062 1.953125 -25.605469 1.953125 -15.890625 C 1.953125 -6.175781 8.945312 0.636719 18.886719 0.636719 Z M 9.308594 -15.890625 C 9.308594 -21.609375 13.257812 -25.558594 18.886719 -25.558594 C 24.5625 -25.558594 28.464844 -21.609375 28.464844 -15.890625 C 28.464844 -10.167969 24.5625 -6.21875 18.886719 -6.21875 C 13.257812 -6.21875 9.308594 -10.167969 9.308594 -15.890625 Z M 9.308594 -15.890625 "/></g></g></g><g fill="#f7f8fa" fill-opacity="1"><g transform="translate(202.495514, 137.546296)"><g><path d="M 3.8125 0 L 24.925781 0 L 24.925781 -6.765625 L 11.03125 -6.765625 L 11.03125 -31.78125 L 3.8125 -31.78125 Z M 3.8125 0 "/></g></g></g><g fill="#f7f8fa" fill-opacity="1"><g transform="translate(228.645674, 137.546296)"><g><path d="M 0.410156 0 L 8.125 0 L 10.261719 -5.492188 L 22.882812 -5.492188 L 25.015625 0 L 32.734375 0 L 20.113281 -31.78125 L 13.03125 -31.78125 Z M 12.121094 -11.167969 L 16.570312 -22.789062 L 21.066406 -11.167969 Z M 12.121094 -11.167969 "/></g></g></g><g fill="#f7f8fa" fill-opacity="1"><g transform="translate(261.787369, 137.546296)"><g><path d="M 23.472656 0 L 30.691406 0 L 30.691406 -31.78125 L 23.472656 -31.78125 L 23.472656 -19.566406 L 11.03125 -19.566406 L 11.03125 -31.78125 L 3.8125 -31.78125 L 3.8125 0 L 11.03125 0 L 11.03125 -12.800781 L 23.472656 -12.800781 Z M 23.472656 0 "/></g></g></g><g fill="#f7f8fa" fill-opacity="1"><g transform="translate(296.291051, 137.546296)"><g><path d="M 3.8125 0 L 11.03125 0 L 11.03125 -12.847656 L 14.84375 -12.847656 C 15.4375 -12.847656 15.933594 -12.847656 16.480469 -12.894531 L 23.289062 0 L 31.6875 0 L 23.109375 -15.570312 C 24.378906 -16.796875 25.332031 -18.386719 26.148438 -20.476562 L 30.554688 -31.78125 L 22.746094 -31.78125 L 19.75 -23.515625 C 18.660156 -20.519531 17.34375 -19.566406 13.757812 -19.566406 L 11.03125 -19.566406 L 11.03125 -31.78125 L 3.8125 -31.78125 Z M 3.8125 0 "/></g></g></g><g fill="#f7f8fa" fill-opacity="1"><g transform="translate(329.296535, 137.546296)"><g><path d="M 16.796875 0.636719 C 25.058594 0.636719 30.101562 -4.539062 30.101562 -13.074219 L 30.101562 -31.78125 L 22.882812 -31.78125 L 22.882812 -13.574219 C 22.882812 -8.714844 20.839844 -6.21875 16.796875 -6.21875 C 12.757812 -6.21875 10.714844 -8.714844 10.714844 -13.574219 L 10.714844 -31.78125 L 3.496094 -31.78125 L 3.496094 -13.074219 C 3.496094 -4.539062 8.535156 0.636719 16.796875 0.636719 Z M 16.796875 0.636719 "/></g></g></g></svg>